<?xml version="1.0" encoding="UTF-8"?>
<!DOCTYPE svg PUBLIC "-//W3C//DTD SVG 1.1//EN" "http://www.w3.org/Graphics/SVG/1.1/DTD/svg11.dtd">
<svg xmlns="http://www.w3.org/2000/svg" xml:space="preserve" width="400px" height="566px" version="1.1" style="shape-rendering:geometricPrecision; text-rendering:geometricPrecision; image-rendering:optimizeQuality; fill-rule:evenodd; clip-rule:evenodd"
viewBox="0 0 400 566"
 xmlns:xlink="http://www.w3.org/1999/xlink">
    <defs>
        <style type="text/css">
            <![CDATA[
                .str1 {stroke:#F9DF73;stroke-width:0.952381}
                .str2 {stroke:#F9DF73;stroke-width:0.380952}
                .str0 {stroke:#E31E24;stroke-width:0.145143}
                .fil4 {fill:none}
                .fil0 {fill:#E31E24}
                .fil1 {fill:#EA504E}
                .fil3 {fill:#F2AE5A}
                .fil2 {fill:#F9DF73}
                .fil5 {fill:#FFEB85}
            ]]>
        </style>
    </defs>
    <g id="Capa_x0020_1">  
        <path class="fil0" d="M402 243c0,74 -39,138 -98,172 -30,18 -65,28 -102,28 -27,0 -54,-5 -78,-16 -8,-3 -16,-7 -23,-12 -59,-34 -99,-98 -99,-172 0,-110 90,-200 200,-200 111,0 200,90 200,200z"/>
        <path class="fil1 str0" d="M370 210c0,62 -33,115 -83,145 -25,14 -54,23 -85,23 -23,0 -45,-5 -65,-13 -7,-3 -13,-7 -20,-10 -49,-30 -82,-83 -82,-145 0,-92 75,-167 167,-167 93,0 168,75 168,167z"/>
        <rect class="fil2" x="178" y="354" width="40.8164" height="79.1836"/>
        <rect class="fil3" x="178" y="354" width="20.4048" height="79.1836"/>
        <g id="_2441367978784">
            <path class="fil2" d="M202 319l0 0c-49,0 -90,-37 -94,-86l-12 -161c-1,-7 5,-12 11,-12l190 0c7,0 12,5 12,12l-13 161c-4,49 -44,86 -94,86z"/>
            <circle class="fil2" cx="198" cy="341" r="37"/>
        </g>
        <g id="_2441367975968">
            <path class="fil3" d="M121 252c-37,0 -66,-12 -87,-36 -18,-23 -29,-54 -31,-93 -1,-29 3,-51 3,-52l1 -7 61 0 16 27 25 0 0 17 -35 0 -15 -28 -38 0c-3,21 -7,86 26,125 17,20 42,30 74,30l0 17 0 0z"/>
            <path class="fil3" d="M186 306c1,1 3,1 4,2 -2,2 -5,6 -6,10 -4,-1 -8,-2 -12,-4 -35,-11 -61,-43 -64,-81l-12 -161c-1,-7 5,-12 11,-12l35 0 8 167c1,37 16,67 36,79z"/>
            <path class="fil3" d="M199 378c0,0 0,0 -1,0 -20,0 -37,-17 -37,-37 0,-11 4,-20 11,-27 4,-3 8,-6 14,-8 1,1 3,1 4,2 -2,2 -5,6 -6,10 -3,6 -5,14 -5,23 0,20 9,36 20,37z"/>
            <path class="fil3" d="M199 378c1,0 2,0 3,0 0,0 -1,0 -2,0 0,0 0,0 -1,0z"/>
            <path class="fil3" d="M304 415c-30,18 -65,28 -102,28 -37,0 -72,-10 -101,-28 4,-10 15,-18 28,-18l147 0c13,0 23,8 28,18z"/>
        </g>
        <g id="_2441367974048">
            <path class="fil2" d="M304 415c-30,18 -65,28 -102,28 -27,0 -54,-5 -78,-16l0 0c0,-16 14,-30 31,-30l121 0c13,0 23,8 28,18z"/>
            <path class="fil2" d="M283 252l0 -17c33,0 58,-10 75,-30 33,-39 28,-104 26,-125l-38 0 -16 28 -35 0 0 -17 26 0 15 -27 62 0 1 7c1,3 15,92 -29,145 -20,24 -49,36 -87,36z"/>
        </g>
        
    </g>
    <g id="Capa_x0020_1_0">
        <metadata id="CorelCorpID_1Corel-Layer"/>
        <g id="_2441367980768">
            <g id="_2594693499488">
                <path class="fil3 str1" d="M141 219l82 -99c1,-2 4,-2 5,-1l47 39c2,1 2,4 1,5l-82 100c-1,2 -4,2 -6,1l-46 -39c-2,-1 -2,-4 -1,-6z"/>
                <line class="fil4 str1" x1="231" y1="210" x2="186" y2= "173" />
                <circle class="fil3 str2" transform="matrix(1.72114 -2.10311 2.10311 1.72114 208.379 191.363)" r="1"/>
            </g>
            <circle class="fil5" transform="matrix(1.72114 -2.10311 2.10311 1.72114 213.676 215.165)" r="3"/>
            <circle class="fil5" transform="matrix(1.72114 -2.10311 2.10311 1.72114 159.711 220.555)" r="3"/>
            <circle class="fil5" transform="matrix(1.72114 -2.10311 2.10311 1.72114 183.999 190.878)" r="3"/>
            <circle class="fil5" transform="matrix(1.72114 -2.10311 2.10311 1.72114 189.389 244.843)" r="3"/>
            <circle class="fil5" transform="matrix(1.72114 -2.10311 2.10311 1.72114 201.533 230.004)" r="3"/>
            <circle class="fil5" transform="matrix(1.72114 -2.10311 2.10311 1.72114 171.855 205.717)" r="3"/>
            <circle class="fil5" transform="matrix(1.72114 -2.10311 2.10311 1.72114 257.934 161.085)" r="3"/>
            <circle class="fil5" transform="matrix(1.72114 -2.10311 2.10311 1.72114 203.969 166.475)" r="3"/>
            <circle class="fil5" transform="matrix(1.72114 -2.10311 2.10311 1.72114 228.257 136.798)" r="3"/>
            <circle class="fil5" transform="matrix(1.72114 -2.10311 2.10311 1.72114 233.647 190.763)" r="3"/>
            <circle class="fil5" transform="matrix(1.72114 -2.10311 2.10311 1.72114 245.79 175.924)" r="3"/>
            <circle class="fil5" transform="matrix(1.72114 -2.10311 2.10311 1.72114 216.113 151.636)" r="3"/>
        </g>
    </g>
</svg>
